<?xml version="1.0" standalone="no"?>
<!DOCTYPE svg PUBLIC "-//W3C//DTD SVG 1.1//EN" "http://www.w3.org/Graphics/SVG/1.1/DTD/svg11.dtd">
<svg width="100%" height="100%" viewBox="0 0 240 70" version="1.1" xmlns="http://www.w3.org/2000/svg" xmlns:xlink="http://www.w3.org/1999/xlink" xml:space="preserve" style="fill-rule:evenodd;clip-rule:evenodd;stroke-linejoin:round;stroke-miterlimit:1.41421;">
    <path d="M74.326,25.38c-8.066,0 -13.226,5.46 -13.226,13.325c0,7.967 5.16,13.427 13.226,13.427c8.116,0 13.276,-5.46 13.276,-13.427c0,-7.865 -5.16,-13.325 -13.276,-13.325ZM224.825,43.466c-1.403,5.359 -5.611,8.567 -11.272,8.567c-7.515,0 -12.074,-5.512 -12.074,-12.926c0,-7.716 4.91,-13.226 12.174,-13.226c7.264,0 11.373,5.561 11.373,13.076l0,0.851l-19.238,0l0,0.2c0.3,5.06 3.306,8.517 7.665,8.517c2.805,0 5.61,-1.453 6.813,-5.059l4.559,0ZM155.652,43.466c-1.403,5.359 -5.611,8.567 -11.272,8.567c-7.515,0 -12.074,-5.512 -12.074,-12.926c0,-7.716 4.91,-13.226 12.174,-13.226c7.265,0 11.372,5.561 11.372,13.076l0,0.851l-19.237,0l0,0.2c0.3,5.06 3.307,8.517 7.665,8.517c2.806,0 5.61,-1.453 6.813,-5.059l4.559,0ZM114.205,42.213c-0.651,5.66 -4.76,9.82 -11.523,9.82c-7.516,0 -12.174,-5.562 -12.174,-13.076c0,-7.515 4.658,-13.076 12.174,-13.076c6.462,0 10.52,3.907 11.372,9.218l-4.208,0c-0.702,-3.256 -2.956,-5.711 -7.164,-5.711c-5.16,0 -8.167,4.057 -8.167,9.569c0,5.51 3.007,9.568 8.167,9.568c4.459,0 6.813,-2.705 7.414,-6.312l4.109,0ZM191.394,18.416l0,8.016l9.17,0l0,3.506l-9.17,0l0,13.276c0,3.257 1.753,5.011 5.06,5.011c0.983,0 2.123,-0.132 3.343,-0.549l0,3.646c-0.996,0.33 -2.122,0.51 -3.343,0.51c-5.611,0 -9.168,-3.307 -9.168,-8.618l0,-13.276l-5.261,0l0,-3.506l0.05,0c3.958,0 5.211,-1.102 5.211,-4.61l0,-3.406l4.108,0ZM176.052,36.251l0,-1.102c0,-3.558 -2.255,-5.761 -5.912,-5.761c-3.457,0 -5.761,1.904 -5.961,4.959l-4.109,0c0.15,-5.211 4.008,-8.466 10.07,-8.466c6.112,0 9.92,3.557 9.92,9.268l0,16.332l-4.008,0l0,-3.958l-0.1,0c-1.203,1.904 -4.259,4.208 -8.818,4.208c-4.909,0 -8.166,-2.755 -8.166,-7.163c0,-4.76 3.557,-8.317 13.627,-8.317l3.457,0ZM51.064,26.032l0,6.412c1.448,-4.211 4.479,-6.15 8.98,-6.567l0,7.096c-6.621,-0.179 -8.98,2.765 -8.98,8.939l0,9.569l-7.064,0l0,-25.449l7.064,0ZM122.193,26.432l0,6.107c1.747,-3.968 5.099,-5.804 9.48,-6.21l0,4.464c-6.324,-0.053 -9.48,3.044 -9.48,9.917l0,10.771l-4.108,0l0,-25.049l4.108,0ZM29.298,16.412c7.414,0 12.224,4.61 12.224,10.922c0,6.311 -4.81,11.072 -12.224,11.072l-7.432,0l0,13.075l-7.866,0l0,-35.069l15.298,0ZM176.052,41.812c0,3.456 -3.608,6.613 -8.016,6.613c-3.106,0 -5.06,-1.453 -5.06,-3.958c0,-2.805 2.205,-5.01 9.619,-5.01l3.457,0l0,2.355ZM74.326,46.471c-4.008,0 -6.313,-3.257 -6.313,-7.766c0,-4.408 2.305,-7.664 6.313,-7.664c4.058,0 6.363,3.256 6.363,7.664c0,4.509 -2.305,7.766 -6.363,7.766ZM220.867,36.702c-0.1,-4.208 -2.705,-7.314 -7.264,-7.314c-4.308,0 -6.964,2.805 -7.715,7.314l14.979,0ZM151.695,36.702c-0.1,-4.208 -2.706,-7.314 -7.264,-7.314c-4.309,0 -6.964,2.805 -7.715,7.314l14.979,0ZM28.095,32.494c3.607,0 5.712,-2.355 5.712,-5.16c0,-2.706 -2.105,-5.01 -5.712,-5.01l-6.229,0l0,10.17l6.229,0ZM232,22.669c0,2.841 -2.196,4.897 -4.876,4.897c-2.64,0 -4.836,-2.035 -4.836,-4.856c0,-2.821 2.196,-4.856 4.876,-4.856c2.64,0 4.836,2.015 4.836,4.815ZM231.114,22.689c0,-2.317 -1.815,-3.989 -3.95,-3.989c-2.156,0 -3.99,1.672 -3.99,4.01c0,2.317 1.814,3.989 3.95,3.989c2.156,0 3.99,-1.672 3.99,-4.01ZM226.076,25.148l-0.907,0l0,-5.077l2.58,0c0.966,0 1.652,0.583 1.652,1.39c0,0.684 -0.463,1.228 -1.149,1.41l1.351,2.277l-1.069,0l-1.128,-2.196l-1.33,0l0,2.196ZM227.749,20.856l-1.673,0l0,1.309l1.592,0c0.503,0 0.866,-0.281 0.866,-0.685c0,-0.362 -0.322,-0.624 -0.785,-0.624Z" style="fill:#252525;"/>
</svg>
